<svg width="1360" height="480" viewBox="0 0 680 240" role="img" xmlns="http://www.w3.org/2000/svg">
  <title>Banner — Sistemas Embarcados: Lógica Digital com ESP32</title>
  <desc>Banner técnico com fundo escuro, trilhas de circuito, sequência de bits e título do curso</desc>

  <rect x="0" y="0" width="680" height="240" fill="#042C53"/>

  <g stroke="#185FA5" stroke-width="0.5" fill="none" opacity="0.5">
    <line x1="0" y1="40" x2="120" y2="40"/>
    <line x1="120" y1="40" x2="120" y2="80"/>
    <line x1="120" y1="80" x2="200" y2="80"/>
    <circle cx="120" cy="40" r="3" fill="#185FA5" stroke="none"/>
    <circle cx="120" cy="80" r="3" fill="#185FA5" stroke="none"/>

    <line x1="0" y1="130" x2="60" y2="130"/>
    <line x1="60" y1="130" x2="60" y2="170"/>
    <line x1="60" y1="170" x2="160" y2="170"/>
    <line x1="160" y1="170" x2="160" y2="140"/>
    <line x1="160" y1="140" x2="220" y2="140"/>
    <circle cx="60" cy="130" r="3" fill="#185FA5" stroke="none"/>
    <circle cx="60" cy="170" r="3" fill="#185FA5" stroke="none"/>
    <circle cx="160" cy="170" r="3" fill="#185FA5" stroke="none"/>
    <circle cx="160" cy="140" r="3" fill="#185FA5" stroke="none"/>

    <line x1="0" y1="200" x2="90" y2="200"/>
    <line x1="90" y1="200" x2="90" y2="220"/>
    <line x1="90" y1="220" x2="200" y2="220"/>
    <circle cx="90" cy="200" r="3" fill="#185FA5" stroke="none"/>
    <circle cx="90" cy="220" r="3" fill="#185FA5" stroke="none"/>

    <line x1="620" y1="0" x2="620" y2="60"/>
    <line x1="620" y1="60" x2="580" y2="60"/>
    <line x1="580" y1="60" x2="580" y2="100"/>
    <circle cx="620" cy="60" r="3" fill="#185FA5" stroke="none"/>
    <circle cx="580" cy="60" r="3" fill="#185FA5" stroke="none"/>

    <line x1="680" y1="160" x2="640" y2="160"/>
    <line x1="640" y1="160" x2="640" y2="120"/>
    <line x1="640" y1="120" x2="600" y2="120"/>
    <line x1="600" y1="120" x2="600" y2="180"/>
    <line x1="600" y1="180" x2="560" y2="180"/>
    <circle cx="640" cy="160" r="3" fill="#185FA5" stroke="none"/>
    <circle cx="640" cy="120" r="3" fill="#185FA5" stroke="none"/>
    <circle cx="600" cy="120" r="3" fill="#185FA5" stroke="none"/>
    <circle cx="600" cy="180" r="3" fill="#185FA5" stroke="none"/>

    <line x1="680" y1="210" x2="560" y2="210"/>
    <line x1="560" y1="210" x2="560" y2="240"/>
    <circle cx="560" cy="210" r="3" fill="#185FA5" stroke="none"/>
  </g>

  <g fill="#0C447C" opacity="0.35">
    <rect x="195" y="68" width="32" height="24" rx="2"/>
    <line x1="200" y1="68" x2="200" y2="60" stroke="#0C447C" stroke-width="0.8" fill="none"/>
    <line x1="207" y1="68" x2="207" y2="60" stroke="#0C447C" stroke-width="0.8" fill="none"/>
    <line x1="214" y1="68" x2="214" y2="60" stroke="#0C447C" stroke-width="0.8" fill="none"/>
    <line x1="221" y1="68" x2="221" y2="60" stroke="#0C447C" stroke-width="0.8" fill="none"/>
    <line x1="200" y1="92" x2="200" y2="100" stroke="#0C447C" stroke-width="0.8" fill="none"/>
    <line x1="207" y1="92" x2="207" y2="100" stroke="#0C447C" stroke-width="0.8" fill="none"/>
    <line x1="214" y1="92" x2="214" y2="100" stroke="#0C447C" stroke-width="0.8" fill="none"/>
    <line x1="221" y1="92" x2="221" y2="100" stroke="#0C447C" stroke-width="0.8" fill="none"/>
  </g>

  <g font-family="'Courier New', monospace" font-size="11" fill="#378ADD" opacity="0.22" font-weight="400">
    <text x="30"  y="22">0b10110011</text>
    <text x="490" y="22">0xFF</text>
    <text x="540" y="22">&amp; 0x0F</text>
    <text x="30"  y="230">uart.read(1)</text>
    <text x="490" y="230">mem32[GPIO]</text>
    <text x="18"  y="112">1 &lt;&lt; 3</text>
    <text x="600" y="112">val &gt;&gt; 4</text>
  </g>

  <g font-family="'Courier New', monospace" font-size="13" fill="none" opacity="0.55">
    <g>
      <rect x="246" y="22" width="18" height="18" rx="2" fill="#1D9E75" opacity="0.9"/>
      <text x="255" y="35" text-anchor="middle" fill="#E1F5EE" font-size="11" font-family="'Courier New', monospace">1</text>
    </g>
    <g>
      <rect x="268" y="22" width="18" height="18" rx="2" fill="#042C53" stroke="#185FA5" stroke-width="0.8"/>
      <text x="277" y="35" text-anchor="middle" fill="#85B7EB" font-size="11" font-family="'Courier New', monospace">0</text>
    </g>
    <g>
      <rect x="290" y="22" width="18" height="18" rx="2" fill="#1D9E75" opacity="0.9"/>
      <text x="299" y="35" text-anchor="middle" fill="#E1F5EE" font-size="11" font-family="'Courier New', monospace">1</text>
    </g>
    <g>
      <rect x="312" y="22" width="18" height="18" rx="2" fill="#042C53" stroke="#185FA5" stroke-width="0.8"/>
      <text x="321" y="35" text-anchor="middle" fill="#85B7EB" font-size="11" font-family="'Courier New', monospace">0</text>
    </g>
    <g>
      <rect x="334" y="22" width="18" height="18" rx="2" fill="#1D9E75" opacity="0.9"/>
      <text x="343" y="35" text-anchor="middle" fill="#E1F5EE" font-size="11" font-family="'Courier New', monospace">1</text>
    </g>
    <g>
      <rect x="356" y="22" width="18" height="18" rx="2" fill="#042C53" stroke="#185FA5" stroke-width="0.8"/>
      <text x="365" y="35" text-anchor="middle" fill="#85B7EB" font-size="11" font-family="'Courier New', monospace">0</text>
    </g>
    <g>
      <rect x="378" y="22" width="18" height="18" rx="2" fill="#1D9E75" opacity="0.9"/>
      <text x="387" y="35" text-anchor="middle" fill="#E1F5EE" font-size="11" font-family="'Courier New', monospace">1</text>
    </g>
    <g>
      <rect x="400" y="22" width="18" height="18" rx="2" fill="#042C53" stroke="#185FA5" stroke-width="0.8"/>
      <text x="409" y="35" text-anchor="middle" fill="#85B7EB" font-size="11" font-family="'Courier New', monospace">0</text>
    </g>
  </g>

  <text x="340" y="118" text-anchor="middle"
        font-family="Arial, sans-serif" font-size="30" font-weight="700"
        fill="#B5D4F4" letter-spacing="1">Sistemas Embarcados</text>

  <text x="340" y="150" text-anchor="middle"
        font-family="Arial, sans-serif" font-size="16" font-weight="400"
        fill="#5DCAA5" letter-spacing="0.5">Lógica Digital com ESP32</text>

  <line x1="220" y1="162" x2="460" y2="162" stroke="#185FA5" stroke-width="0.5" opacity="0.6"/>

  <text x="340" y="182" text-anchor="middle"
        font-family="Arial, sans-serif" font-size="12" font-weight="400"
        fill="#85B7EB" letter-spacing="0.3">MicroPython · Operadores Bitwise · UART · Wokwi</text>

  <g opacity="0.7">
    <circle cx="260" cy="205" r="5" fill="none" stroke="#1D9E75" stroke-width="1.2"/>
    <circle cx="260" cy="205" r="2.5" fill="#1D9E75"/>
    <line x1="265" y1="205" x2="280" y2="205" stroke="#1D9E75" stroke-width="0.8"/>
    <line x1="280" y1="198" x2="280" y2="212" stroke="#1D9E75" stroke-width="0.8"/>

    <circle cx="320" cy="205" r="5" fill="none" stroke="#378ADD" stroke-width="1.2"/>
    <circle cx="320" cy="205" r="2.5" fill="#378ADD"/>
    <line x1="325" y1="205" x2="340" y2="205" stroke="#378ADD" stroke-width="0.8"/>
    <line x1="340" y1="198" x2="340" y2="212" stroke="#378ADD" stroke-width="0.8"/>

    <circle cx="380" cy="205" r="5" fill="none" stroke="#1D9E75" stroke-width="1.2"/>
    <circle cx="380" cy="205" r="2.5" fill="#1D9E75"/>
    <line x1="385" y1="205" x2="400" y2="205" stroke="#1D9E75" stroke-width="0.8"/>
    <line x1="400" y1="198" x2="400" y2="212" stroke="#1D9E75" stroke-width="0.8"/>

    <circle cx="420" cy="205" r="5" fill="none" stroke="#185FA5" stroke-width="1.2"/>
    <line x1="425" y1="205" x2="440" y2="205" stroke="#185FA5" stroke-width="0.8"/>
    <line x1="440" y1="198" x2="440" y2="212" stroke="#185FA5" stroke-width="0.8"/>
  </g>

  <rect x="0" y="0" width="680" height="240" fill="none" stroke="#185FA5" stroke-width="1" opacity="0.3"/>
</svg>
